<?xml version="1.0" encoding="utf-8"?>
<!-- Generator: Adobe Illustrator 16.0.0, SVG Export Plug-In . SVG Version: 6.00 Build 0)  -->
<!DOCTYPE svg PUBLIC "-//W3C//DTD SVG 1.1//EN" "http://www.w3.org/Graphics/SVG/1.1/DTD/svg11.dtd">
<svg version="1.1" id="Calque_1" xmlns="http://www.w3.org/2000/svg" xmlns:xlink="http://www.w3.org/1999/xlink" x="0px" y="0px"
	 width="741.316px" height="533.402px" viewBox="0 0 741.316 533.402" enable-background="new 0 0 741.316 533.402"
	 xml:space="preserve">
<rect y="-266.597" fill="#202633" width="741.316" height="800.099"/>
<path fill="#1A1E29" d="M634.15-266.548v13.358l-9.4,3.93l-3.917,15.717c-5.484,6.287-40.737,72.298-40.737,72.298v24.361
	c-3.918,2.357-15.669,16.504-15.669,16.504l10.186,51.079c-0.783,15.718-31.337,84.873-32.903,86.838
	c-1.567,1.964,6.267,14.536,6.267,14.536c-0.782,6.287-21.936,42.437-21.936,42.437c-1.566,8.645,0,22.791,0,22.791
	c-11.751-10.217-18.802-37.721-18.802-37.721l-13.317-6.287L476.684-2.502c9.402-11.002,17.236-59.726,17.236-59.726
	c0-7.857-19.586-20.432-19.586-20.432c-3.917-5.501-7.051-36.936-7.051-36.936L439.08-76.372c-2.35,8.644,0,19.646,0,19.646
	l-17.235-18.075c3.917-9.43,0-64.438,0-64.438l-9.401-13.36v-14.931c-1.566-5.501-18.019-5.501-18.019-5.501v-22.003
	c-4.7-8.646-29.77-19.646-29.77-19.646c6.267-18.86,10.185-51.865,10.185-51.865L634.15-266.548L634.15-266.548z"/>
<path fill="#13171F" d="M238.861,459.897c-4.6-3.27-5.914-28.143-5.914-28.143c7.228-9.164,11.171-38.612,11.171-38.612
	c-7.885-10.47-5.257-42.54-5.257-42.54c12.484-10.47,28.256-35.34,28.256-35.34c-7.885-9.817-6.57-28.795-6.57-28.795
	c7.229-7.854,18.398-26.18,18.398-26.18c3.286-7.854,0-52.355,0-52.355c-1.971-15.706-15.771-49.083-15.771-49.083v-26.835
	c-9.857-9.816-38.77-44.5-38.77-44.5c3.286-13.089,0-26.181,0-26.181l-11.5,3.927c-11.828,12.762-14.785,67.736-14.785,67.736
	c-4.928,9.816-30.556,33.377-30.556,33.377c-3.943,8.835,0,23.561,0,23.561c-27.599-23.561-41.398-57.92-41.398-57.92
	c0-55.955-19.713-118.782-19.713-118.782c-2.957-19.634-29.57-54.975-29.57-54.975c-4.928-2.945-4.928-20.616-4.928-20.616
	c-7.885-17.67-27.599-40.249-27.599-40.249c0.985-12.762-6.9-55.956-6.9-55.956s-6.9-1.963-7.885-6.872
	c-0.986-4.908-9.857-43.193-9.857-43.193C16.756-218.446,0-232.189,0-232.189c1.971-9.816,0.171-34.358,0.171-34.358h433.854
	c0,0-5.914,32.067-10.515,37.957c0,0-22.342,15.052-32.198,32.067c0,0-10.515,55.63-7.886,85.735c0,0-17.741,15.053-20.37,33.377
	c0,0-3.286,71.99,0,94.242c0,0-21.685,73.954-16.428,107.33h7.228c0,0-11.827,10.471-14.456,20.287c0,0,1.97,60.21,5.913,77.227
	c0,0,14.456,31.413,19.713,47.122c0,0,5.915,24.214,3.286,41.229c0,0,12.484,28.796,28.914,51.049c0,0,0,23.561-1.972,35.34
	c0,0,13.799,17.015,19.713,29.449c0,0-2.627,27.491,0,34.034l16.058,7.888l8.667,24l22,16.667l6.667,25h-282
	c0,0,14.667-18.333,14.667-24.333c0,0-1.334-2.001,9.333-7.334l4-13.333L238.861,459.897z"/>
</svg>
